<svg width="1200" height="750" viewBox="0 0 1200 750" fill="none" xmlns="http://www.w3.org/2000/svg">
  <defs>
    <linearGradient id="bg" x1="0" y1="0" x2="1200" y2="750" gradientUnits="userSpaceOnUse">
      <stop stop-color="#0B1020"/>
      <stop offset="1" stop-color="#070A0F"/>
    </linearGradient>
    <linearGradient id="acc" x1="180" y1="150" x2="1020" y2="600" gradientUnits="userSpaceOnUse">
      <stop stop-color="#7C5CFF" stop-opacity="0.85"/>
      <stop offset="1" stop-color="#FFFFFF" stop-opacity="0.08"/>
    </linearGradient>
  </defs>
  <rect width="1200" height="750" rx="48" fill="url(#bg)"/>
  <rect x="90" y="90" width="1020" height="570" rx="40" fill="rgba(255,255,255,0.06)" stroke="rgba(255,255,255,0.10)"/>
  <rect x="140" y="150" width="520" height="54" rx="16" fill="rgba(255,255,255,0.08)"/>
  <rect x="140" y="230" width="420" height="18" rx="9" fill="rgba(255,255,255,0.10)"/>
  <rect x="140" y="270" width="320" height="18" rx="9" fill="rgba(255,255,255,0.08)"/>
  <rect x="140" y="340" width="420" height="210" rx="26" fill="rgba(255,255,255,0.05)" stroke="rgba(255,255,255,0.10)"/>
  <rect x="610" y="340" width="450" height="210" rx="26" fill="url(#acc)" opacity="0.9"/>
  <rect x="610" y="150" width="450" height="160" rx="26" fill="rgba(255,255,255,0.05)" stroke="rgba(255,255,255,0.10)"/>
  <circle cx="650" cy="200" r="18" fill="#7C5CFF"/>
  <rect x="680" y="186" width="220" height="28" rx="14" fill="rgba(255,255,255,0.10)"/>
  <rect x="680" y="226" width="180" height="18" rx="9" fill="rgba(255,255,255,0.08)"/>
  <rect x="140" y="590" width="210" height="50" rx="25" fill="#7C5CFF"/>
</svg>
